<svg width="15" height="20" viewBox="0 0 15 20" fill="none" xmlns="http://www.w3.org/2000/svg">
<path id="Vector" d="M0 20V14H3V20H0ZM5 20V8.1C4.16667 8.38333 3.625 8.90417 3.375 9.6625C3.125 10.4208 3 11.2 3 12H1C1 9.86667 1.625 8.16667 2.875 6.9C4.125 5.63333 5.83333 5 8 5C9.66667 5 10.9167 4.5875 11.75 3.7625C12.5833 2.9375 13 1.68333 13 0H15C15 1.46667 14.6875 2.77917 14.0625 3.9375C13.4375 5.09583 12.4167 5.91667 11 6.4V20H9V14H7V20H5ZM8 4C7.45 4 6.97917 3.80417 6.5875 3.4125C6.19583 3.02083 6 2.55 6 2C6 1.45 6.19583 0.979167 6.5875 0.5875C6.97917 0.195833 7.45 0 8 0C8.55 0 9.02083 0.195833 9.4125 0.5875C9.80417 0.979167 10 1.45 10 2C10 2.55 9.80417 3.02083 9.4125 3.4125C9.02083 3.80417 8.55 4 8 4Z" fill="white"/>
</svg>
