<svg width="20" height="20" viewBox="0 0 20 20" fill="none" xmlns="http://www.w3.org/2000/svg">
<path id="Vector" fill-rule="evenodd" clip-rule="evenodd" d="M7.76492 0.998648C8.04625 0.684442 8.39067 0.433097 8.77571 0.261019C9.16076 0.0889416 9.57776 0 9.9995 0C10.4212 0 10.8382 0.0889416 11.2233 0.261019C11.6083 0.433097 11.9528 0.684442 12.2341 0.998648L12.934 1.78052C13.034 1.89241 13.1579 1.98035 13.2965 2.03781C13.4352 2.09528 13.585 2.1208 13.7348 2.11247L14.7846 2.05448C15.2056 2.03136 15.6267 2.09725 16.0205 2.24785C16.4143 2.39845 16.7719 2.63038 17.07 2.92851C17.3681 3.22664 17.6001 3.58427 17.7507 3.97807C17.9013 4.37187 17.9671 4.793 17.944 5.21398L17.886 6.26381C17.8779 6.4135 17.9034 6.5631 17.9609 6.70155C18.0184 6.84001 18.1062 6.96377 18.218 7.06369L19.0008 7.76358C19.3152 8.04492 19.5667 8.38941 19.7388 8.77456C19.911 9.15971 20 9.57684 20 9.99872C20 10.4206 19.911 10.8377 19.7388 11.2229C19.5667 11.608 19.3152 11.9525 19.0008 12.2339L18.218 12.9338C18.1061 13.0338 18.0181 13.1577 17.9607 13.2963C17.9032 13.435 17.8777 13.5848 17.886 13.7346L17.944 14.7845C17.9671 15.2054 17.9013 15.6266 17.7507 16.0204C17.6001 16.4142 17.3681 16.7718 17.07 17.0699C16.7719 17.3681 16.4143 17.6 16.0205 17.7506C15.6267 17.9012 15.2056 17.9671 14.7846 17.944L13.7348 17.886C13.5851 17.8778 13.4355 17.9034 13.2971 17.9608C13.1586 18.0183 13.0349 18.1062 12.935 18.2179L12.2351 19.0008C11.9537 19.3152 11.6093 19.5667 11.2241 19.7388C10.839 19.911 10.4219 20 10 20C9.57813 20 9.16101 19.911 8.77587 19.7388C8.39074 19.5667 8.04625 19.3152 7.76492 19.0008L7.06505 18.2179C6.96503 18.106 6.84111 18.0181 6.70247 17.9606C6.56383 17.9032 6.41404 17.8776 6.2642 17.886L5.21439 17.944C4.79342 17.9671 4.37231 17.9012 3.97851 17.7506C3.58472 17.6 3.2271 17.3681 2.92898 17.0699C2.63086 16.7718 2.39894 16.4142 2.24835 16.0204C2.09775 15.6266 2.03186 15.2054 2.05498 14.7845L2.11297 13.7346C2.12114 13.5849 2.09555 13.4353 2.03809 13.2969C1.98064 13.1584 1.89278 13.0347 1.78103 12.9348L0.999179 12.2349C0.684816 11.9535 0.433337 11.609 0.261165 11.2239C0.0889922 10.8387 0 10.4216 0 9.99972C0 9.57784 0.0889922 9.16071 0.261165 8.77556C0.433337 8.39041 0.684816 8.04592 0.999179 7.76458L1.78103 7.06469C1.89292 6.96467 1.98085 6.84074 2.03832 6.7021C2.09578 6.56346 2.12129 6.41366 2.11297 6.26381L2.05498 5.21398C2.03186 4.793 2.09775 4.37187 2.24835 3.97807C2.39894 3.58427 2.63086 3.22664 2.92898 2.92851C3.2271 2.63038 3.58472 2.39845 3.97851 2.24785C4.37231 2.09725 4.79342 2.03136 5.21439 2.05448L6.2642 2.11247C6.41387 2.12064 6.56347 2.09505 6.70192 2.03759C6.84038 1.98013 6.96414 1.89228 7.06405 1.78052L7.76392 0.998648H7.76492ZM13.7058 6.29281C13.8932 6.48031 13.9985 6.73457 13.9985 6.9997C13.9985 7.26482 13.8932 7.51909 13.7058 7.70658L7.70693 13.7056C7.51836 13.8878 7.26581 13.9885 7.00366 13.9863C6.74151 13.984 6.49074 13.8788 6.30537 13.6935C6.12 13.5081 6.01485 13.2573 6.01257 12.9951C6.01029 12.733 6.11107 12.4804 6.29319 12.2919L12.2921 6.29281C12.4796 6.10537 12.7338 6.00007 12.9989 6.00007C13.2641 6.00007 13.5183 6.10537 13.7058 6.29281ZM7.49997 5.99986C7.10222 5.99986 6.72076 6.15787 6.4395 6.43913C6.15825 6.72039 6.00025 7.10186 6.00025 7.49962V7.50962C6.00025 7.90738 6.15825 8.28885 6.4395 8.57011C6.72076 8.85137 7.10222 9.00938 7.49997 9.00938H7.50996C7.90771 9.00938 8.28918 8.85137 8.57043 8.57011C8.85168 8.28885 9.00969 7.90738 9.00969 7.50962V7.49962C9.00969 7.10186 8.85168 6.72039 8.57043 6.43913C8.28918 6.15787 7.90771 5.99986 7.50996 5.99986H7.49997ZM12.499 10.9991C12.1013 10.9991 11.7198 11.1571 11.4386 11.4383C11.1573 11.7196 10.9993 12.1011 10.9993 12.4988V12.5088C10.9993 12.9066 11.1573 13.2881 11.4386 13.5693C11.7198 13.8506 12.1013 14.0086 12.499 14.0086H12.509C12.9068 14.0086 13.2882 13.8506 13.5695 13.5693C13.8507 13.2881 14.0088 12.9066 14.0088 12.5088V12.4988C14.0088 12.1011 13.8507 11.7196 13.5695 11.4383C13.2882 11.1571 12.9068 10.9991 12.509 10.9991H12.499Z" fill="white"/>
</svg>
