<svg width="413" height="400" viewBox="0 0 413 400" fill="none" xmlns="http://www.w3.org/2000/svg">
<path d="M413 200C413 310.457 320.547 400 206.5 400C92.4532 400 0 310.457 0 200C0 89.5431 92.4532 0 206.5 0C320.547 0 413 89.5431 413 200Z" fill="#91C8E4"/>
<g clip-path="url(#clip0_3_62)">
<g filter="url(#filter0_d_3_62)">
<path d="M337.771 100.323C337.873 100.421 337.873 100.579 337.771 100.677L328.873 109.177C328.77 109.274 328.605 109.274 328.502 109.177C328.4 109.079 328.4 108.921 328.502 108.823L337.401 100.323C337.503 100.226 337.669 100.226 337.771 100.323Z" fill="#005C71"/>
<path d="M328.873 111.177L335.677 104.677C335.779 104.579 335.779 104.421 335.677 104.323C335.575 104.226 335.409 104.226 335.307 104.323L328.502 110.823C328.4 110.921 328.4 111.079 328.502 111.177C328.605 111.274 328.77 111.274 328.873 111.177Z" fill="#005C71"/>
<path fill-rule="evenodd" clip-rule="evenodd" d="M325.547 89.25C325.402 89.25 325.285 89.3619 325.285 89.5V124.5C325.285 124.638 325.402 124.75 325.547 124.75H341.25C341.395 124.75 341.512 124.638 341.512 124.5V89.5C341.512 89.3619 341.395 89.25 341.25 89.25H325.547ZM325.809 124.25V89.75H340.988V124.25H325.809Z" fill="#005C71"/>
<path fill-rule="evenodd" clip-rule="evenodd" d="M307.488 124.5C307.488 124.638 307.605 124.75 307.75 124.75H323.453C323.598 124.75 323.715 124.638 323.715 124.5V89.5C323.715 89.3619 323.598 89.25 323.453 89.25H307.75C307.605 89.25 307.488 89.3619 307.488 89.5V124.5ZM323.191 119.25H308.012V114.75H323.191V119.25ZM323.191 119.75H308.012V124.25H323.191V119.75ZM323.191 114.25H308.012V109.75H323.191V114.25ZM323.191 109.25H308.012V104.75H323.191V109.25ZM323.191 104.25H308.012V99.75H323.191V104.25ZM323.191 99.25H308.012V94.75H323.191V99.25ZM323.191 94.25H308.012V89.75H323.191V94.25Z" fill="#005C71"/>
<path d="M320.312 130.25C320.457 130.25 320.574 130.362 320.574 130.5V134.5C320.574 134.638 320.457 134.75 320.312 134.75C320.168 134.75 320.051 134.638 320.051 134.5V130.5C320.051 130.362 320.168 130.25 320.312 130.25Z" fill="#005C71"/>
<path d="M328.426 130.5V134.5C328.426 134.638 328.543 134.75 328.688 134.75C328.832 134.75 328.949 134.638 328.949 134.5V130.5C328.949 130.362 328.832 130.25 328.688 130.25C328.543 130.25 328.426 130.362 328.426 130.5Z" fill="#005C71"/>
<path fill-rule="evenodd" clip-rule="evenodd" d="M305.395 87.5C305.395 87.3619 305.512 87.25 305.656 87.25H343.344C343.488 87.25 343.605 87.3619 343.605 87.5V142.5C343.605 142.638 343.488 142.75 343.344 142.75H305.656C305.512 142.75 305.395 142.638 305.395 142.5V87.5ZM305.918 126.25H343.082V87.75H305.918V126.25ZM305.918 126.75V142.25H324.238V126.75H305.918ZM324.762 126.75V142.25H343.082V126.75H324.762Z" fill="#005C71"/>
</g>
</g>
<path fill-rule="evenodd" clip-rule="evenodd" d="M210.83 75.103C209.777 74.1853 208.223 74.1853 207.17 75.103C204.334 77.5737 199.658 79.443 197.222 79.9162C195.896 80.1736 194.938 81.3523 194.938 82.7244V91.0922C194.938 95.6587 197.758 99.8053 200.428 102.577C201.817 104.02 203.311 105.244 204.676 106.129C205.358 106.57 206.049 106.954 206.714 107.236C207.323 107.495 208.138 107.77 209 107.77C209.862 107.77 210.677 107.495 211.286 107.236C211.951 106.954 212.642 106.57 213.324 106.129C214.689 105.244 216.183 104.02 217.572 102.577C220.242 99.8053 223.062 95.6587 223.062 91.0922V82.7244C223.062 81.3639 222.119 80.1919 220.808 79.9221C218.479 79.4433 213.651 77.5604 210.83 75.103ZM200.562 91.0922V84.9382C203.129 84.1313 206.32 82.7216 209.005 80.8586C211.701 82.7138 214.925 84.1131 217.438 84.9188V91.0922C217.438 93.3943 215.883 96.1569 213.553 98.5772C212.442 99.7307 211.279 100.673 210.301 101.306C209.811 101.623 209.409 101.837 209.116 101.961C209.072 101.98 209.033 101.995 209 102.008C208.967 101.995 208.928 101.98 208.884 101.961C208.591 101.837 208.189 101.623 207.699 101.306C206.721 100.673 205.558 99.7307 204.447 98.5772C202.117 96.1569 200.562 93.3943 200.562 91.0922Z" fill="#005C71"/>
<path fill-rule="evenodd" clip-rule="evenodd" d="M212.032 34.3378C210.184 33.1353 207.816 33.1353 205.968 34.3378L159.093 64.8337C156.476 66.536 155.713 70.0722 157.387 72.7321C159.062 75.3919 162.541 76.1682 165.157 74.4659L169.625 71.5592V117.3C169.625 125.721 176.341 132.548 184.625 132.548H233.375C241.659 132.548 248.375 125.721 248.375 117.3V71.5592L252.843 74.4659C255.459 76.1682 258.938 75.3919 260.613 72.7321C262.287 70.0722 261.524 66.536 258.907 64.8337L212.032 34.3378ZM209 113.488C213.167 113.488 227.75 101.984 227.75 90.6157V79.5864C227.75 77.9103 226.674 76.4322 225.112 75.8952C223.07 75.1931 220.278 74.1678 218.375 73.2076C215.818 71.9176 212.917 70.1841 211.028 69.0187C209.783 68.2507 208.217 68.2507 206.972 69.0187C205.083 70.1841 202.182 71.9176 199.625 73.2076C197.722 74.1678 194.93 75.1931 192.888 75.8952C191.326 76.4322 190.25 77.9103 190.25 79.5864V90.6157C190.25 101.984 204.833 113.488 209 113.488Z" fill="#005C71"/>
<path d="M60.3974 130.878H102.422V134.184C102.422 136.522 101.638 138.764 100.243 140.418C98.8482 142.071 96.9563 143 94.9836 143H67.8353C65.8627 143 63.9708 142.071 62.5759 140.418C61.181 138.764 60.3974 136.522 60.3974 134.184V130.878Z" stroke="#005C71" stroke-width="2" stroke-linecap="round" stroke-linejoin="round"/>
<path d="M97.4008 117.433H102.236C102.984 117.403 103.729 117.552 104.427 117.871C105.126 118.19 105.763 118.673 106.301 119.29C106.839 119.907 107.266 120.646 107.558 121.463C107.85 122.28 108 123.158 108 124.045C108 125.857 107.393 127.595 106.312 128.876C105.23 130.158 103.764 130.878 102.236 130.878H60.5832C59.8347 130.878 59.0938 130.7 58.4046 130.354C57.7154 130.008 57.0919 129.501 56.5714 128.864C56.0509 128.226 55.6439 127.471 55.3748 126.643C55.1056 125.815 54.9798 124.932 55.0047 124.045C54.9788 123.168 55.1053 122.295 55.3765 121.479C55.6476 120.662 56.0576 119.921 56.5809 119.301C57.1042 118.681 57.7295 118.195 58.4181 117.873C59.1066 117.552 59.8436 117.402 60.5832 117.433H76.9466" stroke="#005C71" stroke-width="2" stroke-linecap="round" stroke-linejoin="round"/>
<path d="M108 113.025C107.986 114.187 107.585 115.296 106.884 116.11C106.558 116.543 106.156 116.886 105.707 117.114C105.257 117.342 104.77 117.451 104.281 117.433H94.6118L88.2896 126.029L81.9673 117.433H58.5379C58.0579 117.434 57.5828 117.318 57.1415 117.094C56.7003 116.87 56.3022 116.542 55.9716 116.129C55.641 115.717 55.3848 115.229 55.2185 114.695C55.0523 114.161 54.9796 113.593 55.0049 113.025C54.9796 112.456 55.0523 111.888 55.2185 111.354C55.3848 110.82 55.641 110.332 55.9716 109.92C56.3022 109.507 56.7003 109.179 57.1415 108.955C57.5828 108.731 58.0579 108.616 58.5379 108.616H104.281C105.267 108.616 106.213 109.081 106.911 109.908C107.608 110.734 108 111.855 108 113.025Z" stroke="#005C71" stroke-width="2" stroke-linecap="round" stroke-linejoin="round"/>
<path d="M78.1502 89H88.3774C92.6186 89 96.6861 90.997 99.6851 94.5518C102.684 98.1066 104.369 102.928 104.369 107.955H62.1588C62.1588 102.928 63.8436 98.1066 66.8425 94.5518C69.8415 90.997 73.909 89 78.1502 89Z" stroke="#005C71" stroke-width="2" stroke-linecap="round" stroke-linejoin="round"/>
<path d="M70.9964 98.9184L73.2278 101.784" stroke="#005C71" stroke-width="2" stroke-linecap="round" stroke-linejoin="round"/>
<path d="M91.0788 97.8163L93.4961 100.902" stroke="#005C71" stroke-width="2" stroke-linecap="round" stroke-linejoin="round"/>
<path d="M79.9219 99.1388L82.5252 96.2735" stroke="#005C71" stroke-width="2" stroke-linecap="round" stroke-linejoin="round"/>
<path d="M23.256 173.592C24.024 173.592 24.6213 174.125 25.048 175.192C23.2133 180.056 22.296 186.392 22.296 194.2V201.176H22.424C24.8133 198.787 28.504 191.405 33.496 179.032C34.776 177.411 35.7573 176.6 36.44 176.6H36.696C37.4213 176.6 37.9973 177.005 38.424 177.816V179.032C37.2293 179.757 34.3067 185.795 29.656 197.144L24.408 205.016V205.144C29.2293 210.136 34.2427 212.632 39.448 212.632H41.88C43.4587 212.632 44.5253 212.483 45.08 212.184C46.232 212.653 46.808 213.336 46.808 214.232V214.744C46.808 215.811 44.952 216.344 41.24 216.344H40.28C34.1787 216.344 28.3547 213.827 22.808 208.792H22.424V216.216C22.424 217.667 21.7627 218.392 20.44 218.392C19.2453 218.392 18.648 217.667 18.648 216.216V208.6C17.0693 207.405 16.28 206.125 16.28 204.76C16.28 203.608 17.0053 203.032 18.456 203.032V193.944C18.456 185.667 19.5227 179.096 21.656 174.232C22.2107 173.805 22.744 173.592 23.256 173.592ZM60.3935 190.872C63.5508 190.872 65.9402 193.219 67.5615 197.912L67.8175 199.256C67.8175 203.821 65.6842 208.493 61.4175 213.272C59.7108 214.851 57.9828 215.64 56.2335 215.64C53.6735 215.64 51.8602 214.168 50.7935 211.224C50.4095 209.859 50.2175 208.664 50.2175 207.64V206.872C50.2175 200.131 52.6708 195.011 57.5775 191.512C58.4308 191.085 59.3695 190.872 60.3935 190.872ZM53.9935 207.512C53.9935 210.413 54.7402 211.864 56.2335 211.864C59.3482 211.864 61.9295 207.875 63.9775 199.896V198.68C63.2522 196.035 61.9082 194.712 59.9455 194.712C59.1775 194.712 58.7935 195.245 58.7935 196.312C58.7935 197.037 57.9402 197.613 56.2335 198.04C54.7402 200.557 53.9935 203.715 53.9935 207.512ZM83.5175 189.08C84.6695 189.08 85.4588 191.021 85.8855 194.904C85.4588 195.971 84.7548 196.504 83.7735 196.504C83.0908 196.376 82.4082 195.587 81.7255 194.136L80.5735 193.752C78.5682 193.752 76.7548 195.075 75.1335 197.72V198.296C75.1335 198.936 78.1415 200.003 84.1575 201.496C86.6748 202.989 87.9335 204.803 87.9335 206.936C87.9335 210.435 85.1175 213.421 79.4855 215.896L77.1175 216.28C73.5335 215.896 71.7415 214.104 71.7415 210.904V210.712C71.7415 209.688 72.4028 209.091 73.7255 208.92C74.7495 208.92 75.4322 209.987 75.7735 212.12L76.2855 212.504H77.3735C79.8055 212.504 82.0668 210.84 84.1575 207.512V206.68C84.1575 205.4 81.3628 204.205 75.7735 203.096C72.8295 201.901 71.3575 200.237 71.3575 198.104C71.3575 195.331 73.6828 192.728 78.3335 190.296C80.3815 190.04 82.1095 189.635 83.5175 189.08ZM102.247 190.296C104.124 190.296 105.062 191.043 105.062 192.536L104.487 193.752L104.103 205.464C104.103 210.755 105.169 214.04 107.303 215.32L107.431 216.28C107.303 217.517 106.727 218.136 105.703 218.136H105.319C102.119 215.96 100.519 212.632 100.519 208.152H100.071C98.3638 212.931 96.2945 215.32 93.8625 215.32C91.6012 214.68 90.4705 212.995 90.4705 210.264C90.4705 204.248 92.8812 198.253 97.7025 192.28C99.3238 190.957 100.839 190.296 102.247 190.296ZM94.5025 207.704L94.2465 209.496V210.712H94.8865C98.0865 202.733 99.6865 197.869 99.6865 196.12H99.4305C96.9558 198.893 95.3132 202.755 94.5025 207.704ZM117.286 193.432C120.913 193.731 122.726 195.501 122.726 198.744L122.854 199.576L122.726 209.56C122.726 210.712 123.387 212.269 124.71 214.232V214.36C124.369 215.597 123.75 216.216 122.854 216.216C120.209 215.107 118.886 212.76 118.886 209.176V208.344L118.694 208.216L118.886 207.96V207.832L119.078 199C119.078 197.763 118.545 197.144 117.478 197.144H116.71C114.577 197.997 113.51 202.669 113.51 211.16C113.51 214.104 112.763 215.576 111.27 215.576C110.118 215.576 109.521 214.851 109.478 213.4V207C109.478 198.723 110.203 194.584 111.654 194.584L112.294 194.392L113.638 194.584C114.79 193.816 116.006 193.432 117.286 193.432ZM139.196 174.616L158.396 173.4C158.951 173.4 159.484 173.933 159.996 175C159.996 176.621 158.119 177.432 154.364 177.432L143.164 178.072L142.908 178.2C143.975 185.155 144.508 198.36 144.508 217.816C144.295 219.693 143.612 220.632 142.46 220.632C141.351 220.632 140.711 219.779 140.54 218.072V203.224C140.54 193.325 140.092 185.069 139.196 178.456C131.559 179.181 127.74 180.035 127.74 181.016L127.164 181.272C125.841 180.888 125.18 180.205 125.18 179.224C125.18 176.877 129.852 175.341 139.196 174.616ZM159.664 192.024C161.37 192.067 164.25 195.053 168.304 200.984L168.432 202.072C168.432 203.267 165.509 204.184 159.664 204.824L159.472 205.016V205.272C160.368 209.112 161.306 211.032 162.288 211.032H163.056C164.421 211.032 166.49 209.56 169.264 206.616H169.648C170.501 206.616 171.162 207.235 171.632 208.472C171.632 209.496 169.84 211.267 166.256 213.784C165.317 214.339 164.186 214.744 162.864 215C159.408 215 156.997 211.757 155.632 205.272C153.669 204.973 152.688 204.163 152.688 202.84C152.688 201.901 153.413 201.283 154.864 200.984V201.24L155.504 200.984V199.384C155.504 194.477 156.89 192.024 159.664 192.024ZM160.048 196.632H159.472L159.216 199V200.984H159.472C161.861 200.899 163.056 200.643 163.056 200.216C161.946 198.552 160.944 197.357 160.048 196.632ZM180.619 193.304L183.243 192.92C184.31 192.92 184.907 193.581 185.035 194.904C185.035 196.056 183.648 196.803 180.875 197.144C179.126 198.509 178.251 200.259 178.251 202.392V204.504C179.104 209.197 180.555 211.544 182.603 211.544H183.243C184.438 211.544 186.23 210.413 188.619 208.152H189.003C189.856 208.152 190.539 208.749 191.051 209.944C190.454 211.779 188.534 213.443 185.291 214.936C184.694 215.192 183.947 215.32 183.051 215.32C178.656 215.32 175.798 211.864 174.475 204.952V203.544C174.475 198.552 176.523 195.139 180.619 193.304ZM196.967 179.672C198.161 179.672 198.759 181.123 198.759 184.024L199.527 195.032H199.783L202.983 193.816C206.567 193.816 208.743 197.485 209.51 204.824C209.809 206.915 209.958 209.987 209.958 214.04V219.224C209.958 220.845 209.361 221.656 208.167 221.656H207.911C206.759 221.485 206.183 220.867 206.183 219.8V213.784C206.183 204.141 205.244 198.808 203.367 197.784H202.983C201.703 197.784 200.764 199.747 200.167 203.672V207.256C200.167 213.656 199.633 216.856 198.567 216.856L197.351 216.984C196.156 216.984 195.559 215.213 195.559 211.672C195.687 207.917 195.943 204.845 196.327 202.456L194.983 181.4C194.983 180.291 195.644 179.715 196.967 179.672ZM215.974 179.544C216.998 179.544 217.659 180.077 217.958 181.144L217.574 184.92V186.136C218.641 194.968 219.302 201.837 219.558 206.744C220.027 211.309 220.518 213.592 221.03 213.592C221.03 214.488 220.283 215.064 218.79 215.32C216.657 215.32 215.59 211.011 215.59 202.392L213.798 185.752V185.176C213.798 181.421 214.523 179.544 215.974 179.544ZM232.599 193.432C236.225 193.731 238.039 195.501 238.039 198.744L238.167 199.576L238.039 209.56C238.039 210.712 238.7 212.269 240.023 214.232V214.36C239.681 215.597 239.063 216.216 238.167 216.216C235.521 215.107 234.199 212.76 234.199 209.176V208.344L234.007 208.216L234.199 207.96V207.832L234.391 199C234.391 197.763 233.857 197.144 232.791 197.144H232.023C229.889 197.997 228.823 202.669 228.823 211.16C228.823 214.104 228.076 215.576 226.583 215.576C225.431 215.576 224.833 214.851 224.791 213.4V207C224.791 198.723 225.516 194.584 226.967 194.584L227.607 194.392L228.951 194.584C230.103 193.816 231.319 193.432 232.599 193.432ZM250.349 193.432C253.975 193.731 255.789 195.501 255.789 198.744L255.917 199.576L255.789 209.56C255.789 210.712 256.45 212.269 257.773 214.232V214.36C257.431 215.597 256.813 216.216 255.917 216.216C253.271 215.107 251.949 212.76 251.949 209.176V208.344L251.757 208.216L251.949 207.96V207.832L252.141 199C252.141 197.763 251.607 197.144 250.541 197.144H249.773C247.639 197.997 246.573 202.669 246.573 211.16C246.573 214.104 245.826 215.576 244.333 215.576C243.181 215.576 242.583 214.851 242.541 213.4V207C242.541 198.723 243.266 194.584 244.717 194.584L245.357 194.392L246.701 194.584C247.853 193.816 249.069 193.432 250.349 193.432ZM270.019 190.872C273.176 190.872 275.565 193.219 277.187 197.912L277.443 199.256C277.443 203.821 275.309 208.493 271.043 213.272C269.336 214.851 267.608 215.64 265.859 215.64C263.299 215.64 261.485 214.168 260.419 211.224C260.035 209.859 259.843 208.664 259.843 207.64V206.872C259.843 200.131 262.296 195.011 267.203 191.512C268.056 191.085 268.995 190.872 270.019 190.872ZM263.619 207.512C263.619 210.413 264.365 211.864 265.859 211.864C268.973 211.864 271.555 207.875 273.603 199.896V198.68C272.877 196.035 271.533 194.712 269.571 194.712C268.803 194.712 268.419 195.245 268.419 196.312C268.419 197.037 267.565 197.613 265.859 198.04C264.365 200.557 263.619 203.715 263.619 207.512ZM281.239 193.432C282.22 193.432 283.287 195.779 284.439 200.472C286.06 204.227 286.977 206.211 287.191 206.424C287.404 206.424 288.193 204.291 289.559 200.024C290.924 195.757 292.225 193.624 293.463 193.624C294.615 194.051 295.191 194.733 295.191 195.672C291.649 204.803 289.879 210.84 289.879 213.784L288.663 215H287.447C285.911 213.891 283.308 208.024 279.639 197.4L279.062 195.032C279.361 193.965 280.087 193.432 281.239 193.432ZM309.872 190.296C311.749 190.296 312.688 191.043 312.688 192.536L312.112 193.752L311.728 205.464C311.728 210.755 312.794 214.04 314.928 215.32L315.056 216.28C314.928 217.517 314.352 218.136 313.328 218.136H312.944C309.744 215.96 308.144 212.632 308.144 208.152H307.696C305.989 212.931 303.92 215.32 301.488 215.32C299.226 214.68 298.096 212.995 298.096 210.264C298.096 204.248 300.506 198.253 305.328 192.28C306.949 190.957 308.464 190.296 309.872 190.296ZM302.128 207.704L301.872 209.496V210.712H302.512C305.712 202.733 307.312 197.869 307.312 196.12H307.056C304.581 198.893 302.938 202.755 302.128 207.704ZM324.143 176.152C325.338 176.408 325.935 177.005 325.935 177.944L325.551 180.76V181.592C325.551 183.469 325.764 185.453 326.191 187.544H326.319C331.268 186.051 334.34 185.304 335.535 185.304C336.772 185.645 337.391 186.264 337.391 187.16C337.391 188.611 335.919 189.336 332.975 189.336L326.319 191.704C326.319 197.464 326.938 205.293 328.175 215.192C327.919 216.344 327.3 216.92 326.319 216.92H326.191C324.698 216.92 323.951 215 323.951 211.16C323.396 208.301 322.927 202.093 322.543 192.536H321.391C317.38 192.28 315.375 191.341 315.375 189.72C315.375 189.251 315.823 188.675 316.719 187.992H317.359L320.303 188.76H322.351L321.775 180.76C321.775 177.688 322.564 176.152 324.143 176.152ZM349.581 190.872C352.738 190.872 355.128 193.219 356.749 197.912L357.005 199.256C357.005 203.821 354.872 208.493 350.605 213.272C348.898 214.851 347.17 215.64 345.421 215.64C342.861 215.64 341.048 214.168 339.981 211.224C339.597 209.859 339.405 208.664 339.405 207.64V206.872C339.405 200.131 341.858 195.011 346.765 191.512C347.618 191.085 348.557 190.872 349.581 190.872ZM343.181 207.512C343.181 210.413 343.928 211.864 345.421 211.864C348.536 211.864 351.117 207.875 353.165 199.896V198.68C352.44 196.035 351.096 194.712 349.133 194.712C348.365 194.712 347.981 195.245 347.981 196.312C347.981 197.037 347.128 197.613 345.421 198.04C343.928 200.557 343.181 203.715 343.181 207.512ZM368.289 189.784C370.977 189.784 372.577 191.661 373.089 195.416V195.992C373.089 200.131 370.956 203.928 366.689 207.384C369.164 209.816 373.494 211.032 379.681 211.032C380.62 211.331 381.089 211.992 381.089 213.016C381.089 214.168 380.342 214.744 378.849 214.744C374.668 214.744 370.273 213.677 365.665 211.544V213.4C365.665 217.795 364.726 219.992 362.849 219.992C361.526 219.992 360.865 217.453 360.865 212.376V207.384L360.673 205.592L361.121 203.544L360.673 197.4V197.144C360.673 195.992 361.27 195.203 362.465 194.776C364.129 191.448 366.07 189.784 368.289 189.784ZM365.089 203.8C366.326 203.8 367.713 201.581 369.249 197.144V194.392L368.481 193.56H367.905C366.028 194.84 365.089 198.253 365.089 203.8ZM396.08 189.08C397.232 189.08 398.021 191.021 398.448 194.904C398.021 195.971 397.317 196.504 396.336 196.504C395.653 196.376 394.971 195.587 394.288 194.136L393.136 193.752C391.131 193.752 389.317 195.075 387.696 197.72V198.296C387.696 198.936 390.704 200.003 396.72 201.496C399.237 202.989 400.496 204.803 400.496 206.936C400.496 210.435 397.68 213.421 392.048 215.896L389.68 216.28C386.096 215.896 384.304 214.104 384.304 210.904V210.712C384.304 209.688 384.965 209.091 386.288 208.92C387.312 208.92 387.995 209.987 388.336 212.12L388.848 212.504H389.936C392.368 212.504 394.629 210.84 396.72 207.512V206.68C396.72 205.4 393.925 204.205 388.336 203.096C385.392 201.901 383.92 200.237 383.92 198.104C383.92 195.331 386.245 192.728 390.896 190.296C392.944 190.04 394.672 189.635 396.08 189.08Z" fill="#005C71"/>
<path d="M168.284 287H163.784L171.977 263.727H177.182L185.386 287H180.886L174.67 268.5H174.489L168.284 287ZM168.432 277.875H180.705V281.261H168.432V277.875ZM188.27 287V269.545H192.202V272.511H192.406C192.77 271.511 193.372 270.731 194.213 270.17C195.054 269.602 196.058 269.318 197.224 269.318C198.406 269.318 199.402 269.606 200.213 270.182C201.031 270.75 201.607 271.527 201.94 272.511H202.122C202.509 271.542 203.16 270.769 204.077 270.193C205.001 269.61 206.096 269.318 207.361 269.318C208.967 269.318 210.277 269.826 211.293 270.841C212.308 271.856 212.815 273.337 212.815 275.284V287H208.69V275.92C208.69 274.837 208.402 274.045 207.827 273.545C207.251 273.038 206.546 272.784 205.713 272.784C204.721 272.784 203.944 273.095 203.384 273.716C202.83 274.33 202.554 275.129 202.554 276.114V287H198.52V275.75C198.52 274.848 198.247 274.129 197.702 273.591C197.164 273.053 196.459 272.784 195.588 272.784C194.997 272.784 194.459 272.936 193.974 273.239C193.49 273.534 193.103 273.955 192.815 274.5C192.527 275.038 192.384 275.667 192.384 276.386V287H188.27ZM222.011 287.352C220.905 287.352 219.909 287.155 219.023 286.761C218.144 286.36 217.447 285.769 216.932 284.989C216.424 284.208 216.17 283.246 216.17 282.102C216.17 281.117 216.352 280.303 216.716 279.659C217.08 279.015 217.576 278.5 218.205 278.114C218.833 277.727 219.542 277.436 220.33 277.239C221.125 277.034 221.947 276.886 222.795 276.795C223.818 276.689 224.648 276.595 225.284 276.511C225.92 276.42 226.383 276.284 226.67 276.102C226.966 275.913 227.114 275.621 227.114 275.227V275.159C227.114 274.303 226.86 273.64 226.352 273.17C225.845 272.701 225.114 272.466 224.159 272.466C223.152 272.466 222.352 272.686 221.761 273.125C221.178 273.564 220.784 274.083 220.58 274.682L216.739 274.136C217.042 273.076 217.542 272.189 218.239 271.477C218.936 270.758 219.788 270.22 220.795 269.864C221.803 269.5 222.917 269.318 224.136 269.318C224.977 269.318 225.814 269.417 226.648 269.614C227.481 269.811 228.242 270.136 228.932 270.591C229.621 271.038 230.174 271.648 230.591 272.42C231.015 273.193 231.227 274.159 231.227 275.318V287H227.273V284.602H227.136C226.886 285.087 226.534 285.542 226.08 285.966C225.633 286.383 225.068 286.72 224.386 286.977C223.712 287.227 222.92 287.352 222.011 287.352ZM223.08 284.33C223.905 284.33 224.621 284.167 225.227 283.841C225.833 283.508 226.299 283.068 226.625 282.523C226.958 281.977 227.125 281.383 227.125 280.739V278.682C226.996 278.788 226.777 278.886 226.466 278.977C226.163 279.068 225.822 279.148 225.443 279.216C225.064 279.284 224.689 279.345 224.318 279.398C223.947 279.451 223.625 279.496 223.352 279.534C222.739 279.617 222.189 279.754 221.705 279.943C221.22 280.133 220.837 280.398 220.557 280.739C220.277 281.072 220.136 281.504 220.136 282.034C220.136 282.792 220.413 283.364 220.966 283.75C221.519 284.136 222.223 284.33 223.08 284.33ZM239.477 276.773V287H235.364V269.545H239.295V272.511H239.5C239.902 271.534 240.542 270.758 241.42 270.182C242.307 269.606 243.402 269.318 244.705 269.318C245.909 269.318 246.958 269.576 247.852 270.091C248.754 270.606 249.451 271.352 249.943 272.33C250.443 273.307 250.689 274.492 250.682 275.886V287H246.568V276.523C246.568 275.356 246.265 274.443 245.659 273.784C245.061 273.125 244.231 272.795 243.17 272.795C242.451 272.795 241.811 272.955 241.25 273.273C240.697 273.583 240.261 274.034 239.943 274.625C239.633 275.216 239.477 275.932 239.477 276.773Z" fill="#005C71"/>
<path d="M165.568 302.727V326H160.795L151.534 312.568H151.386V326H145.761V302.727H150.602L159.761 316.136H159.955V302.727H165.568ZM172.503 332.545C171.836 332.545 171.207 332.492 170.616 332.386C170.026 332.288 169.518 332.155 169.094 331.989L170.321 327.955C170.866 328.136 171.359 328.242 171.798 328.273C172.245 328.303 172.628 328.231 172.946 328.057C173.272 327.89 173.522 327.591 173.696 327.159L173.912 326.636L167.707 308.545H173.526L176.741 321H176.923L180.185 308.545H186.037L179.457 327.67C179.139 328.625 178.688 329.466 178.105 330.193C177.529 330.928 176.783 331.504 175.866 331.92C174.957 332.337 173.836 332.545 172.503 332.545ZM192.619 326.295C191.506 326.295 190.517 326.11 189.653 325.739C188.797 325.36 188.119 324.792 187.619 324.034C187.127 323.269 186.881 322.311 186.881 321.159C186.881 320.189 187.051 319.371 187.392 318.705C187.733 318.038 188.203 317.496 188.801 317.08C189.4 316.663 190.089 316.348 190.869 316.136C191.65 315.917 192.483 315.769 193.369 315.693C194.362 315.602 195.161 315.508 195.767 315.409C196.373 315.303 196.813 315.155 197.085 314.966C197.366 314.769 197.506 314.492 197.506 314.136V314.08C197.506 313.496 197.305 313.045 196.903 312.727C196.502 312.409 195.96 312.25 195.278 312.25C194.544 312.25 193.953 312.409 193.506 312.727C193.059 313.045 192.775 313.485 192.653 314.045L187.528 313.864C187.68 312.803 188.07 311.856 188.699 311.023C189.335 310.182 190.206 309.523 191.312 309.045C192.426 308.561 193.763 308.318 195.324 308.318C196.438 308.318 197.464 308.451 198.403 308.716C199.343 308.973 200.161 309.352 200.858 309.852C201.555 310.345 202.093 310.951 202.472 311.67C202.858 312.39 203.051 313.212 203.051 314.136V326H197.824V323.568H197.688C197.377 324.159 196.979 324.659 196.494 325.068C196.017 325.477 195.453 325.784 194.801 325.989C194.157 326.193 193.43 326.295 192.619 326.295ZM194.335 322.659C194.934 322.659 195.472 322.538 195.949 322.295C196.434 322.053 196.82 321.72 197.108 321.295C197.396 320.864 197.54 320.364 197.54 319.795V318.136C197.381 318.22 197.188 318.295 196.96 318.364C196.741 318.432 196.498 318.496 196.233 318.557C195.968 318.617 195.695 318.67 195.415 318.716C195.134 318.761 194.866 318.803 194.608 318.841C194.085 318.924 193.638 319.053 193.267 319.227C192.903 319.402 192.623 319.629 192.426 319.909C192.237 320.182 192.142 320.508 192.142 320.886C192.142 321.462 192.347 321.902 192.756 322.205C193.172 322.508 193.699 322.659 194.335 322.659ZM206.449 326V308.545H211.733V311.75H211.926C212.29 310.689 212.903 309.852 213.767 309.239C214.631 308.625 215.661 308.318 216.858 308.318C218.07 308.318 219.108 308.629 219.972 309.25C220.835 309.871 221.384 310.705 221.619 311.75H221.801C222.127 310.712 222.763 309.883 223.71 309.261C224.657 308.633 225.775 308.318 227.062 308.318C228.714 308.318 230.055 308.848 231.085 309.909C232.116 310.962 232.631 312.409 232.631 314.25V326H227.074V315.523C227.074 314.652 226.85 313.989 226.403 313.534C225.956 313.072 225.377 312.841 224.665 312.841C223.9 312.841 223.297 313.091 222.858 313.591C222.426 314.083 222.21 314.746 222.21 315.58V326H216.869V315.466C216.869 314.655 216.65 314.015 216.21 313.545C215.771 313.076 215.191 312.841 214.472 312.841C213.987 312.841 213.559 312.958 213.188 313.193C212.816 313.42 212.525 313.746 212.312 314.17C212.108 314.595 212.006 315.095 212.006 315.67V326H206.449ZM240.994 326.295C239.881 326.295 238.892 326.11 238.028 325.739C237.172 325.36 236.494 324.792 235.994 324.034C235.502 323.269 235.256 322.311 235.256 321.159C235.256 320.189 235.426 319.371 235.767 318.705C236.108 318.038 236.578 317.496 237.176 317.08C237.775 316.663 238.464 316.348 239.244 316.136C240.025 315.917 240.858 315.769 241.744 315.693C242.737 315.602 243.536 315.508 244.142 315.409C244.748 315.303 245.188 315.155 245.46 314.966C245.741 314.769 245.881 314.492 245.881 314.136V314.08C245.881 313.496 245.68 313.045 245.278 312.727C244.877 312.409 244.335 312.25 243.653 312.25C242.919 312.25 242.328 312.409 241.881 312.727C241.434 313.045 241.15 313.485 241.028 314.045L235.903 313.864C236.055 312.803 236.445 311.856 237.074 311.023C237.71 310.182 238.581 309.523 239.688 309.045C240.801 308.561 242.138 308.318 243.699 308.318C244.813 308.318 245.839 308.451 246.778 308.716C247.718 308.973 248.536 309.352 249.233 309.852C249.93 310.345 250.468 310.951 250.847 311.67C251.233 312.39 251.426 313.212 251.426 314.136V326H246.199V323.568H246.062C245.752 324.159 245.354 324.659 244.869 325.068C244.392 325.477 243.828 325.784 243.176 325.989C242.532 326.193 241.805 326.295 240.994 326.295ZM242.71 322.659C243.309 322.659 243.847 322.538 244.324 322.295C244.809 322.053 245.195 321.72 245.483 321.295C245.771 320.864 245.915 320.364 245.915 319.795V318.136C245.756 318.22 245.563 318.295 245.335 318.364C245.116 318.432 244.873 318.496 244.608 318.557C244.343 318.617 244.07 318.67 243.79 318.716C243.509 318.761 243.241 318.803 242.983 318.841C242.46 318.924 242.013 319.053 241.642 319.227C241.278 319.402 240.998 319.629 240.801 319.909C240.612 320.182 240.517 320.508 240.517 320.886C240.517 321.462 240.722 321.902 241.131 322.205C241.547 322.508 242.074 322.659 242.71 322.659ZM260.381 316.045V326H254.824V308.545H260.108V311.75H260.301C260.688 310.682 261.347 309.845 262.278 309.239C263.21 308.625 264.32 308.318 265.608 308.318C266.835 308.318 267.9 308.595 268.801 309.148C269.71 309.693 270.415 310.458 270.915 311.443C271.422 312.42 271.672 313.564 271.665 314.875V326H266.108V315.966C266.116 314.996 265.869 314.239 265.369 313.693C264.877 313.148 264.191 312.875 263.312 312.875C262.729 312.875 262.214 313.004 261.767 313.261C261.328 313.511 260.987 313.871 260.744 314.341C260.509 314.811 260.388 315.379 260.381 316.045Z" fill="#005C71"/>
<path d="M118.273 345.261V341.727H136.841V345.261H129.648V365H125.466V345.261H118.273ZM145.435 365.341C143.685 365.341 142.173 364.977 140.901 364.25C139.635 363.515 138.662 362.477 137.98 361.136C137.298 359.788 136.957 358.201 136.957 356.375C136.957 354.58 137.298 353.004 137.98 351.648C138.67 350.284 139.632 349.223 140.866 348.466C142.101 347.701 143.552 347.318 145.219 347.318C146.295 347.318 147.31 347.492 148.264 347.841C149.226 348.182 150.075 348.712 150.81 349.432C151.552 350.152 152.135 351.068 152.56 352.182C152.984 353.288 153.196 354.606 153.196 356.136V357.398H138.889V354.625H149.253C149.245 353.837 149.075 353.136 148.741 352.523C148.408 351.902 147.942 351.413 147.344 351.057C146.753 350.701 146.063 350.523 145.276 350.523C144.435 350.523 143.696 350.727 143.06 351.136C142.423 351.538 141.927 352.068 141.571 352.727C141.223 353.379 141.045 354.095 141.037 354.875V357.295C141.037 358.311 141.223 359.182 141.594 359.909C141.965 360.629 142.484 361.182 143.151 361.568C143.817 361.947 144.598 362.136 145.491 362.136C146.09 362.136 146.632 362.053 147.116 361.886C147.601 361.712 148.022 361.458 148.378 361.125C148.734 360.792 149.003 360.379 149.185 359.886L153.026 360.318C152.783 361.333 152.321 362.22 151.639 362.977C150.965 363.727 150.101 364.311 149.048 364.727C147.995 365.136 146.791 365.341 145.435 365.341ZM156.676 365V347.545H160.665V350.455H160.847C161.165 349.447 161.71 348.67 162.483 348.125C163.263 347.572 164.153 347.295 165.153 347.295C165.381 347.295 165.634 347.307 165.915 347.33C166.203 347.345 166.441 347.371 166.631 347.409V351.193C166.456 351.133 166.18 351.08 165.801 351.034C165.43 350.981 165.07 350.955 164.722 350.955C163.972 350.955 163.297 351.117 162.699 351.443C162.108 351.761 161.642 352.205 161.301 352.773C160.96 353.341 160.79 353.996 160.79 354.739V365H156.676ZM169.364 371.545V347.545H173.409V350.432H173.648C173.86 350.008 174.159 349.557 174.545 349.08C174.932 348.595 175.455 348.182 176.114 347.841C176.773 347.492 177.614 347.318 178.636 347.318C179.985 347.318 181.201 347.663 182.284 348.352C183.375 349.034 184.239 350.045 184.875 351.386C185.519 352.72 185.841 354.356 185.841 356.295C185.841 358.212 185.527 359.841 184.898 361.182C184.269 362.523 183.413 363.545 182.33 364.25C181.246 364.955 180.019 365.307 178.648 365.307C177.648 365.307 176.818 365.14 176.159 364.807C175.5 364.473 174.97 364.072 174.568 363.602C174.174 363.125 173.867 362.674 173.648 362.25H173.477V371.545H169.364ZM173.398 356.273C173.398 357.402 173.557 358.39 173.875 359.239C174.201 360.087 174.667 360.75 175.273 361.227C175.886 361.697 176.629 361.932 177.5 361.932C178.409 361.932 179.17 361.689 179.784 361.205C180.398 360.712 180.86 360.042 181.17 359.193C181.489 358.337 181.648 357.364 181.648 356.273C181.648 355.189 181.492 354.227 181.182 353.386C180.871 352.545 180.409 351.886 179.795 351.409C179.182 350.932 178.417 350.693 177.5 350.693C176.621 350.693 175.875 350.924 175.261 351.386C174.648 351.848 174.182 352.496 173.864 353.33C173.553 354.163 173.398 355.144 173.398 356.273ZM197.091 365.341C195.341 365.341 193.83 364.977 192.557 364.25C191.292 363.515 190.318 362.477 189.636 361.136C188.955 359.788 188.614 358.201 188.614 356.375C188.614 354.58 188.955 353.004 189.636 351.648C190.326 350.284 191.288 349.223 192.523 348.466C193.758 347.701 195.208 347.318 196.875 347.318C197.951 347.318 198.966 347.492 199.92 347.841C200.883 348.182 201.731 348.712 202.466 349.432C203.208 350.152 203.792 351.068 204.216 352.182C204.64 353.288 204.852 354.606 204.852 356.136V357.398H190.545V354.625H200.909C200.902 353.837 200.731 353.136 200.398 352.523C200.064 351.902 199.598 351.413 199 351.057C198.409 350.701 197.72 350.523 196.932 350.523C196.091 350.523 195.352 350.727 194.716 351.136C194.08 351.538 193.583 352.068 193.227 352.727C192.879 353.379 192.701 354.095 192.693 354.875V357.295C192.693 358.311 192.879 359.182 193.25 359.909C193.621 360.629 194.14 361.182 194.807 361.568C195.473 361.947 196.254 362.136 197.148 362.136C197.746 362.136 198.288 362.053 198.773 361.886C199.258 361.712 199.678 361.458 200.034 361.125C200.39 360.792 200.659 360.379 200.841 359.886L204.682 360.318C204.439 361.333 203.977 362.22 203.295 362.977C202.621 363.727 201.758 364.311 200.705 364.727C199.652 365.136 198.447 365.341 197.091 365.341ZM208.332 365V347.545H212.321V350.455H212.503C212.821 349.447 213.366 348.67 214.139 348.125C214.92 347.572 215.81 347.295 216.81 347.295C217.037 347.295 217.291 347.307 217.571 347.33C217.859 347.345 218.098 347.371 218.287 347.409V351.193C218.113 351.133 217.836 351.08 217.457 351.034C217.086 350.981 216.726 350.955 216.378 350.955C215.628 350.955 214.954 351.117 214.355 351.443C213.764 351.761 213.298 352.205 212.957 352.773C212.616 353.341 212.446 353.996 212.446 354.739V365H208.332ZM227.915 365.341C226.172 365.341 224.676 364.958 223.426 364.193C222.184 363.428 221.225 362.371 220.551 361.023C219.884 359.667 219.551 358.106 219.551 356.341C219.551 354.568 219.892 353.004 220.574 351.648C221.256 350.284 222.218 349.223 223.46 348.466C224.71 347.701 226.188 347.318 227.892 347.318C229.309 347.318 230.563 347.58 231.653 348.102C232.752 348.617 233.627 349.348 234.278 350.295C234.93 351.235 235.301 352.333 235.392 353.591H231.46C231.301 352.75 230.922 352.049 230.324 351.489C229.733 350.92 228.941 350.636 227.949 350.636C227.108 350.636 226.369 350.864 225.733 351.318C225.097 351.765 224.6 352.409 224.244 353.25C223.896 354.091 223.722 355.098 223.722 356.273C223.722 357.462 223.896 358.485 224.244 359.341C224.593 360.189 225.081 360.845 225.71 361.307C226.347 361.761 227.093 361.989 227.949 361.989C228.555 361.989 229.097 361.875 229.574 361.648C230.059 361.413 230.464 361.076 230.79 360.636C231.116 360.197 231.339 359.663 231.46 359.034H235.392C235.294 360.269 234.93 361.364 234.301 362.318C233.672 363.265 232.816 364.008 231.733 364.545C230.65 365.076 229.377 365.341 227.915 365.341ZM243.793 365.352C242.687 365.352 241.69 365.155 240.804 364.761C239.925 364.36 239.228 363.769 238.713 362.989C238.205 362.208 237.952 361.246 237.952 360.102C237.952 359.117 238.134 358.303 238.497 357.659C238.861 357.015 239.357 356.5 239.986 356.114C240.615 355.727 241.323 355.436 242.111 355.239C242.906 355.034 243.728 354.886 244.577 354.795C245.599 354.689 246.429 354.595 247.065 354.511C247.702 354.42 248.164 354.284 248.452 354.102C248.747 353.913 248.895 353.621 248.895 353.227V353.159C248.895 352.303 248.641 351.64 248.134 351.17C247.626 350.701 246.895 350.466 245.94 350.466C244.933 350.466 244.134 350.686 243.543 351.125C242.959 351.564 242.565 352.083 242.361 352.682L238.52 352.136C238.823 351.076 239.323 350.189 240.02 349.477C240.717 348.758 241.569 348.22 242.577 347.864C243.584 347.5 244.698 347.318 245.918 347.318C246.759 347.318 247.596 347.417 248.429 347.614C249.262 347.811 250.024 348.136 250.713 348.591C251.402 349.038 251.955 349.648 252.372 350.42C252.796 351.193 253.009 352.159 253.009 353.318V365H249.054V362.602H248.918C248.668 363.087 248.315 363.542 247.861 363.966C247.414 364.383 246.849 364.72 246.168 364.977C245.493 365.227 244.702 365.352 243.793 365.352ZM244.861 362.33C245.687 362.33 246.402 362.167 247.009 361.841C247.615 361.508 248.08 361.068 248.406 360.523C248.74 359.977 248.906 359.383 248.906 358.739V356.682C248.777 356.788 248.558 356.886 248.247 356.977C247.944 357.068 247.603 357.148 247.224 357.216C246.846 357.284 246.471 357.345 246.099 357.398C245.728 357.451 245.406 357.496 245.134 357.534C244.52 357.617 243.971 357.754 243.486 357.943C243.001 358.133 242.618 358.398 242.338 358.739C242.058 359.072 241.918 359.504 241.918 360.034C241.918 360.792 242.194 361.364 242.747 361.75C243.3 362.136 244.005 362.33 244.861 362.33ZM259.077 371.545C258.516 371.545 257.997 371.5 257.52 371.409C257.05 371.326 256.675 371.227 256.395 371.114L257.349 367.909C257.948 368.083 258.482 368.167 258.952 368.159C259.421 368.152 259.834 368.004 260.19 367.716C260.554 367.436 260.861 366.966 261.111 366.307L261.463 365.364L255.134 347.545H259.497L263.52 360.727H263.702L267.736 347.545H272.111L265.122 367.114C264.796 368.038 264.365 368.83 263.827 369.489C263.289 370.155 262.63 370.663 261.849 371.011C261.077 371.367 260.152 371.545 259.077 371.545ZM279.48 365.352C278.374 365.352 277.378 365.155 276.491 364.761C275.613 364.36 274.916 363.769 274.401 362.989C273.893 362.208 273.639 361.246 273.639 360.102C273.639 359.117 273.821 358.303 274.185 357.659C274.548 357.015 275.045 356.5 275.673 356.114C276.302 355.727 277.01 355.436 277.798 355.239C278.594 355.034 279.416 354.886 280.264 354.795C281.287 354.689 282.116 354.595 282.753 354.511C283.389 354.42 283.851 354.284 284.139 354.102C284.435 353.913 284.582 353.621 284.582 353.227V353.159C284.582 352.303 284.329 351.64 283.821 351.17C283.313 350.701 282.582 350.466 281.628 350.466C280.62 350.466 279.821 350.686 279.23 351.125C278.647 351.564 278.253 352.083 278.048 352.682L274.207 352.136C274.51 351.076 275.01 350.189 275.707 349.477C276.404 348.758 277.257 348.22 278.264 347.864C279.272 347.5 280.385 347.318 281.605 347.318C282.446 347.318 283.283 347.417 284.116 347.614C284.95 347.811 285.711 348.136 286.401 348.591C287.09 349.038 287.643 349.648 288.06 350.42C288.484 351.193 288.696 352.159 288.696 353.318V365H284.741V362.602H284.605C284.355 363.087 284.003 363.542 283.548 363.966C283.101 364.383 282.537 364.72 281.855 364.977C281.181 365.227 280.389 365.352 279.48 365.352ZM280.548 362.33C281.374 362.33 282.09 362.167 282.696 361.841C283.302 361.508 283.768 361.068 284.094 360.523C284.427 359.977 284.594 359.383 284.594 358.739V356.682C284.465 356.788 284.245 356.886 283.935 356.977C283.632 357.068 283.291 357.148 282.912 357.216C282.533 357.284 282.158 357.345 281.787 357.398C281.416 357.451 281.094 357.496 280.821 357.534C280.207 357.617 279.658 357.754 279.173 357.943C278.688 358.133 278.306 358.398 278.026 358.739C277.745 359.072 277.605 359.504 277.605 360.034C277.605 360.792 277.882 361.364 278.435 361.75C278.988 362.136 279.692 362.33 280.548 362.33Z" fill="#005C71"/>
<defs>
<filter id="filter0_d_3_62" x="301.395" y="87.25" width="46.2109" height="63.5" filterUnits="userSpaceOnUse" color-interpolation-filters="sRGB">
<feFlood flood-opacity="0" result="BackgroundImageFix"/>
<feColorMatrix in="SourceAlpha" type="matrix" values="0 0 0 0 0 0 0 0 0 0 0 0 0 0 0 0 0 0 127 0" result="hardAlpha"/>
<feOffset dy="4"/>
<feGaussianBlur stdDeviation="2"/>
<feComposite in2="hardAlpha" operator="out"/>
<feColorMatrix type="matrix" values="0 0 0 0 0 0 0 0 0 0 0 0 0 0 0 0 0 0 0.25 0"/>
<feBlend mode="normal" in2="BackgroundImageFix" result="effect1_dropShadow_3_62"/>
<feBlend mode="normal" in="SourceGraphic" in2="effect1_dropShadow_3_62" result="shape"/>
</filter>
<clipPath id="clip0_3_62">
<rect width="67" height="64" fill="white" transform="translate(291 83)"/>
</clipPath>
</defs>
</svg>
