<svg width="7" height="7" viewBox="0 0 7 7" fill="none" xmlns="http://www.w3.org/2000/svg">
<g filter="url(#filter0_i_11_46)">
<path d="M5.87061 0.351277C4.99322 -0.286986 3.90977 0.0108696 3.32484 0.741326C2.73991 0.0108696 1.65646 -0.290532 0.77906 0.351277C0.313775 0.691684 0.0213099 1.26612 0.00136909 1.87247C-0.0451594 3.24828 1.09811 4.35106 2.84293 6.04246L2.87617 6.07437C3.12875 6.31904 3.5176 6.31904 3.77018 6.07082L3.80674 6.03536C5.55156 4.34751 6.69151 3.24474 6.6483 1.86892C6.62836 1.26612 6.3359 0.691684 5.87061 0.351277Z" fill="white"/>
</g>
<path d="M3.32484 1.54125L2.93455 1.05386C2.48354 0.490644 1.69501 0.300786 1.07429 0.754811L3.32484 1.54125ZM3.32484 1.54125L3.71512 1.05386M3.32484 1.54125L3.71512 1.05386M3.71512 1.05386C4.16491 0.492168 4.95374 0.303041 5.57594 0.755217C5.90894 0.999137 6.13323 1.42618 6.14856 1.88496C6.1651 2.41446 5.96031 2.92334 5.49911 3.5337C5.03002 4.1545 4.34152 4.82238 3.4591 5.67599L3.45862 5.67646L3.42206 5.71192L3.42206 5.71191L3.41973 5.7142C3.38718 5.74618 3.35235 5.75734 3.32179 5.75743C3.29102 5.75751 3.25619 5.74637 3.22405 5.71523L3.22248 5.71371L3.19095 5.68345C3.19066 5.68317 3.19038 5.6829 3.19009 5.68262C2.30778 4.82732 1.61877 4.15887 1.14929 3.53765C0.687487 2.92659 0.483201 2.41815 0.501084 1.88937L0.501099 1.8889M3.71512 1.05386L0.501099 1.8889M0.501099 1.8889C0.516331 1.42574 0.741216 0.998506 1.07426 0.754833L0.501099 1.8889Z" stroke="black"/>
<defs>
<filter id="filter0_i_11_46" x="0" y="0" width="6.64941" height="6.25742" filterUnits="userSpaceOnUse" color-interpolation-filters="sRGB">
<feFlood flood-opacity="0" result="BackgroundImageFix"/>
<feBlend mode="normal" in="SourceGraphic" in2="BackgroundImageFix" result="shape"/>
<feColorMatrix in="SourceAlpha" type="matrix" values="0 0 0 0 0 0 0 0 0 0 0 0 0 0 0 0 0 0 127 0" result="hardAlpha"/>
<feOffset dx="0.5" dy="0.5"/>
<feComposite in2="hardAlpha" operator="arithmetic" k2="-1" k3="1"/>
<feColorMatrix type="matrix" values="0 0 0 0 1 0 0 0 0 1 0 0 0 0 1 0 0 0 0.25 0"/>
<feBlend mode="normal" in2="shape" result="effect1_innerShadow_11_46"/>
</filter>
</defs>
</svg>
